<svg xmlns="http://www.w3.org/2000/svg" width="225.491" height="188.121" viewBox="0 0 225.491 188.121">
  <g id="coverage-3" transform="translate(1.36 0.014)">
    <g id="Scene" transform="translate(-1.36 -0.014)">
      <g id="_6" data-name="6" transform="translate(0)">
        <path id="Path_15339" data-name="Path 15339" d="M63.531,48.457a91.745,91.745,0,0,1,1.811,30.837c-.348,2.09-1.045,4.5-1.533,9.1-.6,5.666-.186,8.15-1.37,8.638s-2.577-.929-7.663-6.641a115.958,115.958,0,0,1-7.663-8.87,187.649,187.649,0,0,1-14.4-21.967C23.428,41.212,22.894,10.073,31.37,7.031S58.376,27.651,63.531,48.457Z" transform="translate(36.69 8.978)" fill="#ffc5d2"/>
        <path id="Path_15340" data-name="Path 15340" d="M59.351,97.746a.581.581,0,0,1-.511-.279A217.278,217.278,0,0,1,40.008,58.828,216.974,216.974,0,0,1,27.7,7.232a.585.585,0,1,1,1.161-.139A215.954,215.954,0,0,0,41.03,58.433a214.953,214.953,0,0,0,18.809,38.43.6.6,0,0,1-.186.813A.72.72,0,0,1,59.351,97.746Z" transform="translate(39.778 8.731)" fill="#bbbbf9"/>
        <path id="Path_15341" data-name="Path 15341" d="M75.031,52.524A91.629,91.629,0,0,1,60.564,79.669,91.546,91.546,0,0,0,54.5,86.636c-3.46,4.644-4.389,6.966-5.666,6.641s-1.7-2.136-3.065-9.637c-1.138-6.246-1.718-9.288-1.927-11.61a186.628,186.628,0,0,1-.836-26.263C44.635,25.263,60.425-1.534,69.226.3S81.463,32.067,75.031,52.524Z" transform="translate(59.835 0.313)" fill="#ffc5d2"/>
        <path id="Path_15342" data-name="Path 15342" d="M45.773,94.2a.581.581,0,0,1-.581-.581A216.7,216.7,0,0,1,65.65.344a.627.627,0,0,1,.766-.325.6.6,0,0,1,.279.79A214.955,214.955,0,0,0,46.353,93.6.6.6,0,0,1,45.773,94.2Z" transform="translate(62.9 0.014)" fill="#bbbbf9"/>
        <path id="Path_15343" data-name="Path 15343" d="M35.8,33.83H158.759a26.5,26.5,0,0,1,26.495,26.495V91.116H9.31V60.325A26.5,26.5,0,0,1,35.8,33.83Z" transform="translate(15.466 44.759)" fill="#e3e3fd"/>
        <path id="Path_15344" data-name="Path 15344" d="M14.252,92.516l-2.322-.929q3.019-10.983,6.084-21.9l5.6,2.183Q18.919,82.183,14.252,92.516Z" transform="translate(18.93 92.168)" fill="#3f469a"/>
        <path id="Path_15345" data-name="Path 15345" d="M86.8,92.516l2.322-.929Q86.058,80.6,83.039,69.69L77.42,71.873Z" transform="translate(105.513 92.168)" fill="#3f469a"/>
        <path id="Path_15346" data-name="Path 15346" d="M173.236,84.851H28.361A21.711,21.711,0,0,1,6.65,63.14H194.97a21.688,21.688,0,0,1-21.735,21.711Z" transform="translate(11.95 83.509)" fill="#e3e3fd"/>
        <path id="Path_15347" data-name="Path 15347" d="M199.966,70.722H10.368a6.664,6.664,0,1,1,0-13.305h189.6a6.664,6.664,0,1,1,0,13.306Z" transform="translate(7.535 75.927)" fill="#e3e3fd"/>
        <path id="Path_15348" data-name="Path 15348" d="M195.121,63.628H6.8A.314.314,0,0,1,6.8,63h188.32a.279.279,0,0,1,.3.279.3.3,0,0,1-.3.348Z" transform="translate(11.775 83.323)" fill="#bbbbf9"/>
        <rect id="Rectangle_150" data-name="Rectangle 150" width="25.102" height="43.376" rx="5.26" transform="translate(0 113.363) rotate(-17.9)" fill="#e3e3fd"/>
        <path id="Path_15349" data-name="Path 15349" d="M12.062,86.423A12.609,12.609,0,0,1,4.608,84.1a.3.3,0,0,1,0-.418.279.279,0,0,1,.395,0,11.982,11.982,0,0,0,10.774,1.765l.65-.209a11.935,11.935,0,0,0,7.663-15l-6.966-20.5a.279.279,0,0,1,.186-.348.325.325,0,0,1,.372.163l6.966,20.5a12.493,12.493,0,0,1-8.1,15.6l-.65.232A12.678,12.678,0,0,1,12.062,86.423Z" transform="translate(9.139 65.311)" fill="#bbbbf9"/>
        <path id="Path_15350" data-name="Path 15350" d="M8.727,61.365a5.681,5.681,0,1,1,2.461-.372A5.782,5.782,0,0,1,8.727,61.365Zm0-11.494a5.6,5.6,0,0,0-2.183.464,5.41,5.41,0,1,0,4.18,0,5.968,5.968,0,0,0-2-.464Z" transform="translate(6.737 65.314)" fill="#bbbbf9"/>
        <rect id="Rectangle_151" data-name="Rectangle 151" width="25.102" height="43.376" rx="5.26" transform="translate(212.159 154.603) rotate(-162.1)" fill="#e3e3fd"/>
        <path id="Path_15351" data-name="Path 15351" d="M94.041,86.516a12.516,12.516,0,0,1-3.739-.581l-.65-.232a12.493,12.493,0,0,1-8.058-15.72l6.966-20.5a.325.325,0,0,1,.372-.163.279.279,0,0,1,.186.348l-6.966,20.5a11.935,11.935,0,0,0,7.663,15l.65.209a12.075,12.075,0,0,0,10.774-1.765.279.279,0,0,1,.395,0,.325.325,0,0,1,0,.418A12.632,12.632,0,0,1,94.041,86.516Z" transform="translate(110.232 65.218)" fill="#bbbbf9"/>
        <path id="Path_15352" data-name="Path 15352" d="M92.5,61.418a5.759,5.759,0,0,1-2.322-.511A6.084,6.084,0,1,1,94.637,61a5.922,5.922,0,0,1-2.136.418Zm0-11.494a5.968,5.968,0,0,0-2,.372,5.438,5.438,0,1,0,2-.372Z" transform="translate(117.507 65.261)" fill="#bbbbf9"/>
        <path id="Path_15353" data-name="Path 15353" d="M172.853,57.421H12.792a.279.279,0,0,1-.3-.279.3.3,0,0,1,.3-.3H172.853a.29.29,0,0,1,0,.581Z" transform="translate(19.67 75.18)" fill="#bbbbf9"/>
        <path id="Path_15354" data-name="Path 15354" d="M55.583,65.216,47.061,67.91c-2.136-4.389-4.226-8.8-6.316-13.189-.418-.859-.836-1.742-1.231-2.6s-.929-1.927-1.37-2.879l-1-2.043q0-9.938-.255-19.877a10.379,10.379,0,0,1,1.718.232c3.437.813,6.664,4.342,11.819,19.784.116.372.255.743.372,1.138s.186.65.3.952l.325.952C52.61,54.233,54.1,59.249,55.583,65.216Z" transform="translate(51.929 36.152)" fill="#ff8c64"/>
        <path id="Path_15355" data-name="Path 15355" d="M50.085,36.43,40.031,42.676c-.418-.859-.836-1.742-1.231-2.6s-.929-1.927-1.37-2.879Z" transform="translate(52.643 48.196)" fill="#122275"/>
        <path id="Path_15356" data-name="Path 15356" d="M40,54.015l15.813-5.062L47.751,31.189A7.175,7.175,0,0,0,34.1,35.438Z" transform="translate(48.011 35.348)" fill="#5b98e8"/>
        <path id="Path_15357" data-name="Path 15357" d="M40.566,61.421A5.666,5.666,0,0,0,48,61.862a5.062,5.062,0,0,0,.3-7.384l-.348-.372-1.742-1.974a6.27,6.27,0,0,0-5.155,1.231,5.759,5.759,0,0,0-.488,8.058Z" transform="translate(54.918 68.788)" fill="#ff8c64"/>
        <path id="Path_15358" data-name="Path 15358" d="M64.939,81.371,41.719,87.966a6.107,6.107,0,0,1-.859-3.6,5.758,5.758,0,0,1,.232-1.231,13.77,13.77,0,0,0,.163-6.014l4.064-1.672c7.315,5.643,10.728,6.223,12.47,5.619,1.231-.418,2.624,0,3.9-.418.79-.209,1.765-.581,2.531,0a1.742,1.742,0,0,1,.72.72Z" transform="translate(57.155 99.784)" fill="#ff8c64"/>
        <path id="Path_15359" data-name="Path 15359" d="M53.088,68c-4.18,2.972-9.01,1.7-18.577.79h-.673A53.151,53.151,0,0,1,21.809,65.4a15.233,15.233,0,0,1-1.416-6.827l6.8-8.754a49.113,49.113,0,0,1,6.966,0c13.445,1.091,17.973,4.2,20.318,6.688a7.709,7.709,0,0,1,2.67,5.5A8.383,8.383,0,0,1,53.088,68Z" transform="translate(30.112 65.736)" fill="#ff8c64"/>
        <path id="Path_15360" data-name="Path 15360" d="M49.262,76.334c-.673,1-2.113,3-4.946,6.966a71.8,71.8,0,0,1-5.364,7.245c-3.808,3.715-10.589,6.339-14.467,4.644-5.643-2.322-8.15-14.861-3.158-30.559,1.579-3.437,2.926-6.432,4.5-9.892v-4.83A74.121,74.121,0,0,1,28.5,33.771a14.42,14.42,0,0,1,18.577-9.66,57.5,57.5,0,0,1,7.942,3.367c.929.488,1.811.975,2.647,1.486a54.381,54.381,0,0,1,5.248,3.53c3.483,3,1.3,12.052.557,15.094A86.684,86.684,0,0,1,49.262,76.334Z" transform="translate(27.808 30.862)" fill="#ff8c64"/>
        <path id="Path_15361" data-name="Path 15361" d="M42.413,60.01A11.61,11.61,0,0,1,37.328,69.3a11.959,11.959,0,0,1-7.338,2.09,12.423,12.423,0,0,1-9.846-5.55,11.61,11.61,0,0,1,10.4-18.112A12.261,12.261,0,0,1,37.653,50.3a11.773,11.773,0,0,1,4.76,9.706Z" transform="translate(27.133 63.093)" fill="#ff8c64"/>
        <path id="Path_15362" data-name="Path 15362" d="M59.994,67c-4.18,2.949-9.01,1.7-18.577.79h-.7a55.1,55.1,0,0,1-12.052-3.3,15.233,15.233,0,0,1-1.416-6.827L34.08,48.91a49.132,49.132,0,0,1,6.966,0C54.468,50,59.019,53.113,61.364,55.6a7.733,7.733,0,0,1,2.74,5.527A8.383,8.383,0,0,1,59.994,67Z" transform="translate(39.181 64.533)" fill="#ff8c64"/>
        <path id="Path_15363" data-name="Path 15363" d="M46.628,59.144a11.8,11.8,0,0,1-4.482,9.288,9.822,9.822,0,0,1-6.525,2.09,10.7,10.7,0,0,1-8.661-5.387,12.818,12.818,0,0,1-1.788-6.827A11.03,11.03,0,0,1,36.179,47a10.264,10.264,0,0,1,6.316,2.578,12.353,12.353,0,0,1,4.133,9.567Z" transform="translate(36.432 62.171)" fill="#ff8c64"/>
        <path id="Path_15364" data-name="Path 15364" d="M59.2,104.9l-5.132,1.927c-.7-1.347-1.788-3.413-3.251-5.852-7.524-12.632-12.771-15.79-16.255-23.662a36.433,36.433,0,0,1-3.042-17L39.508,54c.255.441.673,1.138,1.138,2.02A53.849,53.849,0,0,1,46.079,71.6C47.008,76.431,50.027,85.58,59.2,104.9Z" transform="translate(44.737 71.425)" fill="#ff8c64"/>
        <path id="Path_15365" data-name="Path 15365" d="M49.405,22.174a28.586,28.586,0,0,0-1.974,2.6,17.509,17.509,0,0,0-1.115,1.881,22.78,22.78,0,0,0-1.556,3.46c-.139.372-.255.766-.395,1.184a4.227,4.227,0,0,0-.3,1.347,24.1,24.1,0,0,0-.581,6.5L29.9,33.134c2.926-5.225,5.875-10.426,8.8-15.674Z" transform="translate(42.688 23.116)" fill="#ff8c64"/>
        <path id="Path_15366" data-name="Path 15366" d="M39.734,23.972a22.781,22.781,0,0,0-1.556,3.46,7.825,7.825,0,0,1-3.2-5.573,8.708,8.708,0,0,1,0-1.718l4.528-.65a22.594,22.594,0,0,0,.232,4.482Z" transform="translate(49.34 25.8)" fill="#122275"/>
        <path id="Path_15367" data-name="Path 15367" d="M50.185,13.4c.186,1.37.372,2.972.511,4.83v5.5a8.237,8.237,0,0,0,.441,1.881,6.41,6.41,0,0,1,0,2c-.418,3.715-.627,5.573-1.788,6.966-2.9,3.274-10.5.929-13.05-1.231a13.328,13.328,0,0,1-2.067-2.322,11.725,11.725,0,0,1-1.115-2.09,22.594,22.594,0,0,1-1.045-5.619,23.731,23.731,0,0,1,.743-8.824,16.115,16.115,0,0,1,8.894-3.2A15.813,15.813,0,0,1,50.185,13.4Z" transform="translate(45.392 14.94)" fill="#ff8c64"/>
        <path id="Path_15368" data-name="Path 15368" d="M40.776,15.853a1.645,1.645,0,0,0,0-1.115c-.6-.836-3.553-.279-5.271,1.416a5.619,5.619,0,0,0-1.045,1.44l.418-.163c1.045-.418,1.416-.673,2.136-.929a11.169,11.169,0,0,1,1.115-.348,12.052,12.052,0,0,1,2.647-.3Z" transform="translate(48.717 19.011)" fill="#122275"/>
        <path id="Path_15369" data-name="Path 15369" d="M41.308,14.289v1.579a10.217,10.217,0,0,0-2.113,0c-.279-.627-.209-.929,0-1.091A3.176,3.176,0,0,1,41.308,14.289Z" transform="translate(54.733 18.88)" fill="#122275"/>
        <path id="Path_15370" data-name="Path 15370" d="M38.54,18.831a1.788,1.788,0,0,0,1.37.139,1.649,1.649,0,0,0,.79-.581Z" transform="translate(54.111 24.346)" fill="#122275"/>
        <path id="Path_15371" data-name="Path 15371" d="M38.874,21.022a.292.292,0,0,1-.046-.581l1.161-.209a.294.294,0,1,1,.093.581l-1.161.209Z" transform="translate(54.171 26.776)" fill="#ea522f"/>
        <path id="Path_15372" data-name="Path 15372" d="M43.081,19.37c.186.464-.975,1.625-2.322,1.834-1.951.3-3.483-1.742-3.6-1.881.859,0,2.16-.209,3.739-.232S43.012,19.185,43.081,19.37Z" transform="translate(52.286 25.27)" fill="#fff"/>
        <path id="Path_15373" data-name="Path 15373" d="M45.032,19.31H43.1c-2.322,0-2.322-.139-2.67,0-1.974.836-.65,6.618-2,6.966-.975.3-2.322-2.485-3.158-2.322s-.766,2.786-.372,6.316a29.467,29.467,0,0,0-1.533-3.506c-1.579-3.135-2.67-3.948-2.624-5.805a5.48,5.48,0,0,1,1.091-3.274c.859-1.091,1.9-1.37,1.974-2.322s-.906-1.207-.743-1.811,2.02-.279,3.948-1.486c1.184-.743,1.068-1.254,2.322-1.742.232,0,1.951-.766,2.9,0,.557.464.418,1.022,1.091,1.393a2.067,2.067,0,0,0,1.44.209c1.045-.163,1.393-.859,1.834-.673s.279.882.743,1.091.766-.348,1.533-.65a4.18,4.18,0,0,1,2.833,0c.72.255,2.16,1,2.183,2,0,.511-.372.929-1.463,1.742A14.536,14.536,0,0,1,45.032,19.31Z" transform="translate(43.811 13.232)" fill="#3f469a"/>
        <path id="Path_15374" data-name="Path 15374" d="M32.082,19.235c.372,1.509,1.556,2.485,2.67,2.206a2.485,2.485,0,0,0,1.393-3.158C35.774,16.8,34.59,15.8,33.5,16.077a2.508,2.508,0,0,0-1.416,3.158Z" transform="translate(45.382 21.226)" fill="#ff8c64"/>
        <path id="Path_15375" data-name="Path 15375" d="M34.075,19.323a2.322,2.322,0,0,1-1.811-.929.325.325,0,0,1,0-.418.279.279,0,0,1,.395,0,1.718,1.718,0,0,0,1.672.673A1.486,1.486,0,0,0,35,18.232a.279.279,0,0,1,.395,0,.3.3,0,0,1,0,.418,1.881,1.881,0,0,1-.952.581Z" transform="translate(45.712 23.691)" fill="#ea522f"/>
        <path id="Path_15376" data-name="Path 15376" d="M32.654,18.844a.279.279,0,0,1-.232-.116,3.251,3.251,0,0,1-.464-1,.29.29,0,0,1,.557-.163,2.763,2.763,0,0,0,.395.836.3.3,0,0,1,0,.395Z" transform="translate(45.391 22.986)" fill="#ea522f"/>
        <path id="Path_15377" data-name="Path 15377" d="M32.231,19.4a.279.279,0,0,1-.3-.232,2.67,2.67,0,0,1,1.6-3.228,2.02,2.02,0,0,1,.836,0,.3.3,0,0,1-.116.581,1.231,1.231,0,0,0-.581,0A2.16,2.16,0,0,0,32.51,19.1a.279.279,0,0,1-.232.325Z" transform="translate(45.233 21.055)" fill="#ea522f"/>
        <path id="Path_15378" data-name="Path 15378" d="M34.3,19.521a.325.325,0,0,1-.232-.139l-1.6-2.322a.287.287,0,0,1,.395-.418l1.625,2.322a.3.3,0,0,1,0,.395.255.255,0,0,1-.186.163Z" transform="translate(45.972 21.938)" fill="#ea522f"/>
        <path id="Path_15379" data-name="Path 15379" d="M33,18.11a.279.279,0,0,1-.255-.395l.279-.882a.29.29,0,0,1,.557.163l-.3.906A.279.279,0,0,1,33,18.11Z" transform="translate(46.416 22.025)" fill="#ea522f"/>
        <path id="Path_15380" data-name="Path 15380" d="M41.387,86.7,65.073,80.15a1.393,1.393,0,0,0,.418-.952,1.533,1.533,0,0,0-1.045-1.556,51.549,51.549,0,0,0-7.315-.952H53.485c-1.022,1.788-2.02,3.576-3.042,5.341l-9.288,2.694a1.44,1.44,0,0,0-.325.859,1.37,1.37,0,0,0,.557,1.115Z" transform="translate(57.138 101.423)" fill="#5b98e8"/>
        <path id="Path_15381" data-name="Path 15381" d="M35.826,18.543a.219.219,0,0,1-.163-.395,4.644,4.644,0,0,1,2.624-1.718,4.389,4.389,0,0,1,1.9,0,.3.3,0,0,1,.232.348.279.279,0,0,1-.325.232,4.18,4.18,0,0,0-1.7,0,4.366,4.366,0,0,0-2.322,1.509A.279.279,0,0,1,35.826,18.543Z" transform="translate(50.184 21.616)" fill="#122275"/>
        <path id="Path_15382" data-name="Path 15382" d="M38.348,17.4a.882.882,0,1,1-1.742,0,.882.882,0,1,1,1.742,0Z" transform="translate(51.539 21.687)" fill="#122275"/>
        <path id="Path_15383" data-name="Path 15383" d="M38.7,18.263a.255.255,0,0,1-.186,0,.279.279,0,0,1,0-.395,4.644,4.644,0,0,1,2.624-1.718,4.482,4.482,0,0,1,1.927,0,.285.285,0,1,1-.116.557,4.482,4.482,0,0,0-1.672,0,4.273,4.273,0,0,0-2.322,1.509.325.325,0,0,1-.255.046Z" transform="translate(53.971 21.245)" fill="#122275"/>
        <path id="Path_15384" data-name="Path 15384" d="M41.2,17.049a.882.882,0,1,1-1.718,0,.859.859,0,1,1,1.718,0Z" transform="translate(55.327 21.437)" fill="#122275"/>
        <path id="Path_15385" data-name="Path 15385" d="M46.072,62.406,27.89,52.142,39.756,47.73c2.879,1.115,5.271,1.951,6.966,2.508,6.85,2.322,10.1,3.019,13.282,6.084a19.668,19.668,0,0,1,1.858,2.067Z" transform="translate(40.03 63.136)" fill="#3f469a"/>
        <path id="Path_15386" data-name="Path 15386" d="M26.909,85.467q-4.876-11.076-9.8-21.99a6.037,6.037,0,0,1,3.413-1.37,7.478,7.478,0,0,1,1.254,0,13.933,13.933,0,0,0,5.991-.7l2.322,3.785c-4.644,8.058-4.644,11.494-3.785,13.143.581,1.161.441,2.6.952,3.785.325.789.836,1.7.464,2.508a1.927,1.927,0,0,1-.813.836Z" transform="translate(25.778 81.222)" fill="#ff8c64"/>
        <path id="Path_15387" data-name="Path 15387" d="M22.031,79.433l-1.811-5.2c1.37-.65,3.46-1.672,5.945-3.065,12.841-7.175,16.255-12.307,24.1-15.7a36.619,36.619,0,0,1,17.09-2.578l5.991,7.733c-.534.372-1.44.975-2.577,1.649a39.615,39.615,0,0,1-15.21,4.992C50.639,67.892,41.328,70.516,22.031,79.433Z" transform="translate(29.89 69.77)" fill="#ff8c64"/>
        <path id="Path_15388" data-name="Path 15388" d="M14.26,65.4,31.1,83.307a1.765,1.765,0,0,0,1.068,0,1.579,1.579,0,0,0,.766-1.6c-.581-2.113-1.184-4.273-1.858-6.479-.441-1.416-.882-2.833-1.324-4.2l-7.175.3-6.757-6.966a1.231,1.231,0,0,0-.906,0,1.416,1.416,0,0,0-.65,1.045Z" transform="translate(22.011 85.007)" fill="#5b98e8"/>
        <path id="Path_15389" data-name="Path 15389" d="M43.778,54.361,40.6,53.247a.283.283,0,1,1,.186-.534L43.871,53.8a.285.285,0,0,1-.093.557Z" transform="translate(56.559 69.694)" fill="#ea522f"/>
        <path id="Path_15390" data-name="Path 15390" d="M37.65,61.188a.279.279,0,0,1-.279-.232l-.859-3.924a.3.3,0,0,1,.581-.116l.836,3.924a.279.279,0,0,1-.209.325Z" transform="translate(51.424 74.989)" fill="#ea522f"/>
        <path id="Path_15391" data-name="Path 15391" d="M31.809,60.973a.279.279,0,0,1-.279-.255L31.391,59.7a.292.292,0,0,1,.581-.07l.139,1.022a.279.279,0,0,1-.255.325Z" transform="translate(44.657 78.524)" fill="#ea522f"/>
        <path id="Path_15392" data-name="Path 15392" d="M49.5,74.995l-24.01-4.087a15.86,15.86,0,0,1-6.966-7.918,16.928,16.928,0,0,1,1.788-14.722c2.508-.279,29.908-2.926,39.824,13.1a22.663,22.663,0,0,1,2.717,6.571Z" transform="translate(26.427 63.411)" fill="#3f469a"/>
        <path id="Path_15393" data-name="Path 15393" d="M53.257,79.6A16.254,16.254,0,0,1,44.2,84.244c-4.644.534-4.969-2.067-10.891-2.136-4.644,0-7.245,1.486-12.423.232A20.36,20.36,0,0,1,18.24,81.5c.163-1.416.418-3.53.79-6.061.511-3.344,1.022-6.084,1.579-8.615,2.136-9.59,3.808-11.61,5.132-18.577C27.6,38.313,24.6,33.436,28.759,28.769a14.165,14.165,0,0,1,3.808-2.9,22.71,22.71,0,0,1,14.861-2.438q6.153,13.352,8.986,12.679c1.324-.3,2.113-2.879,2.322-7.709a12.4,12.4,0,0,1,7.709,6.316,12.8,12.8,0,0,1,.743,7.477C65.425,53.592,54.372,77.208,53.257,79.6Z" transform="translate(27.272 30.546)" fill="#5b98e8"/>
        <path id="Path_15394" data-name="Path 15394" d="M33.869,45.478c-.6,1.742-1.161,3.46-1.742,5.2l-5.5,16.6L17.8,65.727c.743-6.107,1.579-11.262,2.322-15.233l.186-1c.139-.72.279-1.463.418-2.136,3.181-15.976,5.945-19.877,9.288-21.108a8.174,8.174,0,0,1,1.672-.441Q32.731,35.539,33.869,45.478Z" transform="translate(26.691 34.156)" fill="#ff8c64"/>
        <path id="Path_15395" data-name="Path 15395" d="M30.848,38.45,18.82,38.195l.186-1c.139-.72.279-1.463.418-2.136h.418C23.464,36.151,27.133,37.243,30.848,38.45Z" transform="translate(28.039 46.385)" fill="#122275"/>
        <path id="Path_15396" data-name="Path 15396" d="M34.745,54.112,18.49,51.047A32.857,32.857,0,0,1,24.272,32.47c2.578-3.576,8.5-10.1,11.889-8.522S38.483,34.072,38.344,35Q36.533,44.521,34.745,54.112Z" transform="translate(27.603 31.374)" fill="#5b98e8"/>
        <path id="Path_15397" data-name="Path 15397" d="M42.6,58.382a.325.325,0,0,1-.232,0,22.083,22.083,0,0,0-3.228-3.622,23.825,23.825,0,0,0-8.824-4.876.279.279,0,0,1-.186-.348.3.3,0,0,1,.372-.209,24.335,24.335,0,0,1,9.01,4.992,22.222,22.222,0,0,1,3.321,3.553.279.279,0,0,1,0,.395.255.255,0,0,1-.232.116Z" transform="translate(42.972 65.231)" fill="#bbbbf9"/>
        <path id="Path_15398" data-name="Path 15398" d="M31.465,62.692a.279.279,0,1,1-.163-.534l10.821-6.525a.325.325,0,0,1,.418,0,.3.3,0,0,1-.116.395L31.6,62.553Z" transform="translate(44.281 73.484)" fill="#bbbbf9"/>
        <path id="Path_15399" data-name="Path 15399" d="M45.916,68.65l-7.361-2.183-4.017-1.184c-9.59-2.81-12.144-3.553-13.932-6.223a11.935,11.935,0,0,1-.859-9.5.3.3,0,0,1,.348-.209.279.279,0,0,1,.209.348,11.471,11.471,0,0,0,.836,9.056c1.579,2.485,4.11,3.2,13.538,5.968l4.017,1.184c3.181.929,5.759,1.718,7.291,2.183a.286.286,0,0,1-.07.557Z" transform="translate(28.459 65.274)" fill="#bbbbf9"/>
        <path id="Path_15400" data-name="Path 15400" d="M79.023,40.581c.511,3.437,2.322,4.017,1.718,5.945-.65,2.6-4.644,4.644-7.942,4.157a9.915,9.915,0,0,1-7.524-6.966c-2.485-8.406,7.849-16.022,5.016-20.2-2.067-3.042-8.685-.766-9.288-2.81s3.576-5.805,8.011-5.364a7.779,7.779,0,0,1,6.455,5.178c.7,2.183-.534,2.786,0,5.364.766,3.646,3.437,3.6,4.273,6.966S78.465,36.634,79.023,40.581Z" transform="translate(83.732 20.267)" fill="#3f469a"/>
        <path id="Path_15401" data-name="Path 15401" d="M74.994,48.039l-.163-.557a2.81,2.81,0,0,0,1.927-1.37c.232-.6,0-1.207-.511-2.09a12.167,12.167,0,0,1-1.231-3.692,8.777,8.777,0,0,1,.441-4.412,5.318,5.318,0,0,0,.279-3.367,6.177,6.177,0,0,0-2-3.181,6.966,6.966,0,0,1-2.322-3.831,6.525,6.525,0,0,1,0-2.9,4.644,4.644,0,0,0,.163-1.3,4.992,4.992,0,0,0-.186-1.068c-.72-2.647-6.177-3.948-7.245-4.18V15.53c1.6.325,6.966,1.672,7.663,4.5a5.735,5.735,0,0,1,.232,1.277,5.572,5.572,0,0,1-.163,1.44,5.805,5.805,0,0,0,0,2.67A6.572,6.572,0,0,0,74,28.952a6.78,6.78,0,0,1,2.16,3.46,5.945,5.945,0,0,1-.279,3.692,8.1,8.1,0,0,0-.418,4.133,10.937,10.937,0,0,0,1.184,3.53,3.112,3.112,0,0,1,.511,2.554A3.2,3.2,0,0,1,74.994,48.039Z" transform="translate(87.969 20.565)" fill="#3f469a"/>
        <path id="Path_15402" data-name="Path 15402" d="M96.528,44.768,54.15,44.536a9.033,9.033,0,0,1,2.485-4.9c3.762-3.553,9.126-1.091,12.284-4.064A5.689,5.689,0,0,0,70.474,33a13.77,13.77,0,0,0,.3-5.805,2.683,2.683,0,0,0-.116-.929h.627l3.878-.279a1.324,1.324,0,0,1,0-1.765,1.3,1.3,0,0,1,1.927.372c1.3,6.966,3.971,9.846,6.339,11.146,3.46,1.927,6.966.975,10.287,3.924a10.032,10.032,0,0,1,2.81,5.109Z" transform="translate(74.748 31.684)" fill="#ff8c64"/>
        <path id="Path_15403" data-name="Path 15403" d="M84.467,32.933a.874.874,0,0,1,.813,1.138H56.741a.72.72,0,0,1,.186-.813.766.766,0,0,1,.557-.139,24.034,24.034,0,0,1,8.731-.766c1.649.186,2.067.418,3.9.511a47.37,47.37,0,0,0,7.268-.627A21.874,21.874,0,0,1,84.467,32.933Z" transform="translate(78.102 42.59)" fill="#fff"/>
        <path id="Path_15404" data-name="Path 15404" d="M63.76,30.7a7.407,7.407,0,0,0,.929.348,8.267,8.267,0,0,0,3.3.279c2.856-.232,5.5-.65,6.409-.79l-6.177.209Z" transform="translate(87.453 40.409)" fill="#122275"/>
        <path id="Path_15405" data-name="Path 15405" d="M68.7,30.7a6.711,6.711,0,0,1-.952.348,8.127,8.127,0,0,1-3.274.279c-2.856-.232-5.527-.65-6.409-.79l6.177.209Z" transform="translate(79.918 40.409)" fill="#122275"/>
        <path id="Path_15406" data-name="Path 15406" d="M46.5,56.668c.72-2.949,1.416-5.9,2.136-8.847a193.3,193.3,0,0,1,19.343.906c6.479.65,12.493,1.556,17.95,2.624a10.774,10.774,0,0,1,1.765,14.4,10.264,10.264,0,0,1-9.846,3.135,77.249,77.249,0,0,1-8.708-1.765A72.774,72.774,0,0,1,46.5,56.668Z" transform="translate(64.634 63.254)" fill="#ff8c64"/>
        <path id="Path_15407" data-name="Path 15407" d="M88.5,71.946a35.945,35.945,0,0,0-5.016-6.711l3.135-16.255a6.037,6.037,0,0,0,3.39-5.387,5.968,5.968,0,0,0-1.579-4.017l.836-4.3a11.4,11.4,0,0,0-3.692-2.949,13.77,13.77,0,0,0-11.61.325,13.932,13.932,0,0,0-11.61-.325,11.262,11.262,0,0,0-3.6,2.856c.255,1.416.534,2.856.813,4.3A5.968,5.968,0,0,0,57.984,43.5a6.037,6.037,0,0,0,3.39,5.387l3.135,16.255a35.946,35.946,0,0,0-5.016,6.711,37.153,37.153,0,0,0-4.783,15.07A53.663,53.663,0,0,0,73.751,91.1c.116-1.231.488-1.231.6,0a55.57,55.57,0,0,0,7.106-.673A54.754,54.754,0,0,0,93.28,87.086,37.153,37.153,0,0,0,88.5,71.946Z" transform="translate(75.489 41.288)" fill="#3f469a"/>
        <path id="Path_15408" data-name="Path 15408" d="M91.775,57.352c-1.138,8.011-7.709,18.577-18.461,18.577S55.69,65.642,54.738,57.352C54,50.177,57.316,41.1,64.027,38.566a14.374,14.374,0,0,1,9.126.325l.418.116c5.225,1.463,8.661-.232,10.914.163C89.035,39.936,92.89,49.317,91.775,57.352Z" transform="translate(75.391 50.24)" fill="#3f469a"/>
        <path id="Path_15409" data-name="Path 15409" d="M88.772,69.642a8.731,8.731,0,0,1-5.736,1.533c-.859,0-1.742-.441-3.785-.72-1.37-.209-2.322-.279-2.624-.3-6.966-.534-20.458-7.825-20.458-7.825-2.322-1.207-5.2-2.879-8.638-5.039a5.039,5.039,0,0,1-3.042-5.782,5.132,5.132,0,0,1,6.966-2.972L68.57,47.28l17.044,6.664C86.659,59.169,87.634,64.417,88.772,69.642Z" transform="translate(61.814 62.541)" fill="#5b98e8"/>
        <path id="Path_15410" data-name="Path 15410" d="M51.822,49.511a5.6,5.6,0,0,1,2.9,7.2,5.782,5.782,0,0,1-5.271,3.367c-.7-.418-1.44-.813-2.322-1.231l-2.09-1.068a6.154,6.154,0,0,1-.534-5.364A5.619,5.619,0,0,1,51.822,49.511Z" transform="translate(61.495 64.908)" fill="#ff8c64"/>
        <path id="Path_15411" data-name="Path 15411" d="M93.817,69.044,91.124,72.62c-.882-.395-2.322-.975-3.971-1.6-13.259-4.644-20.69-1.463-30.977-5.48a33.832,33.832,0,0,1-9.706-5.852c.859-3.46,1.742-6.966,2.6-10.356,9.521,3.831,16.719,7.268,21.688,9.776,2.74,1.393,7.361,3.785,13.932,6.5C88.5,67.14,91.658,68.3,93.817,69.044Z" transform="translate(64.595 65.251)" fill="#ff8c64"/>
        <path id="Path_15412" data-name="Path 15412" d="M75.729,59.49q-2.136,5.062-4.273,10.1a2.067,2.067,0,0,1-1.556-.186c-.882-.6-.789-2.067-.836-2.81,0-1.463-.975-3.53-4.644-6.037L67.114,57.4l4.644.627a8.847,8.847,0,0,1,3.065.929,5.712,5.712,0,0,1,.906.534Z" transform="translate(88.326 75.92)" fill="#ff8c64"/>
        <path id="Path_15413" data-name="Path 15413" d="M87.013,71.664c-6.5-.163-39.684-1.347-42.749-13.282-.673-2.578-.627-8.406,2.183-9.892s6.061.836,6.711,1.254l8.824,5.225L89.846,65.952Z" transform="translate(61.204 63.491)" fill="#5b98e8"/>
        <path id="Path_15414" data-name="Path 15414" d="M70.3,69.19a8.708,8.708,0,0,0,5.736,1.533c.859,0,1.742-.441,3.762-.72,1.393-.209,2.322-.279,2.647-.3,6.966-.534,20.434-7.825,20.434-7.825,2.322-1.207,5.225-2.879,8.661-5.039a5.039,5.039,0,0,0,3.042-5.782,5.132,5.132,0,0,0-6.966-2.972,91.512,91.512,0,0,0-16.9,2.322c-5.736,1.393-7.686,2.461-11.053,3.065-5.039.952-12.725.766-23.221-5.062Z" transform="translate(77.776 62.993)" fill="#5b98e8"/>
        <path id="Path_15415" data-name="Path 15415" d="M80.348,49.506a5.573,5.573,0,0,0-2.9,7.2,5.759,5.759,0,0,0,5.248,3.367l2.322-1.231,2.09-1.068a6.154,6.154,0,0,0,.534-5.364,5.619,5.619,0,0,0-7.291-2.9Z" transform="translate(105 64.912)" fill="#ff8c64"/>
        <path id="Path_15416" data-name="Path 15416" d="M59,69.044l2.717,3.576c.882-.395,2.322-.975,3.971-1.6,13.259-4.644,20.666-1.463,30.977-5.48a34.135,34.135,0,0,0,9.706-5.852c-.882-3.46-1.742-6.966-2.6-10.356-9.521,3.831-16.719,7.268-21.688,9.776-2.74,1.393-7.361,3.785-13.932,6.5C64.41,67.14,61.322,68.3,59,69.044Z" transform="translate(81.16 65.251)" fill="#ff8c64"/>
        <path id="Path_15417" data-name="Path 15417" d="M56.6,59.49l4.3,10.1a2,2,0,0,0,1.533-.186c.882-.6.789-2.067.836-2.81,0-1.463,1-3.53,4.644-6.037L65.168,57.4l-4.644.627a8.847,8.847,0,0,0-3.065.929,7.868,7.868,0,0,0-.859.534Z" transform="translate(77.987 75.92)" fill="#ff8c64"/>
        <path id="Path_15418" data-name="Path 15418" d="M64.977,71.664c6.5-.163,39.684-1.347,42.749-13.282.673-2.578.627-8.406-2.183-9.892s-6.061.836-6.734,1.254l-8.8,5.225L62.26,65.928Z" transform="translate(85.47 63.491)" fill="#5b98e8"/>
        <path id="Path_15419" data-name="Path 15419" d="M91.144,51.916l1.927-.488a10.635,10.635,0,0,1-3.413,4.133C87.87,56.839,86.8,56.653,81.6,58.511a26.494,26.494,0,0,1-3.762,1.324,14.7,14.7,0,0,1-7.849-1.022C64.51,57.071,61,55.98,57.73,52.659A19.018,19.018,0,0,1,54.2,47.69l1.207-.65,13.027,1.022Z" transform="translate(74.814 62.223)" fill="#3f469a"/>
        <path id="Path_15420" data-name="Path 15420" d="M62.854,65.437a.325.325,0,0,1-.279-.163.3.3,0,0,1,.139-.395l35.6-16.255a.3.3,0,0,1,.255.534L62.97,65.414Z" transform="translate(85.851 64.284)" fill="#bbbbf9"/>
        <path id="Path_15421" data-name="Path 15421" d="M77.015,50.558a.291.291,0,0,1-.279-.372l.418-1.37a.29.29,0,0,1,.557.163l-.418,1.37a.3.3,0,0,1-.279.209Z" transform="translate(104.594 64.301)" fill="#bbbbf9"/>
        <path id="Path_15422" data-name="Path 15422" d="M83.094,63.55,48.612,49.5a.3.3,0,0,1-.163-.372.348.348,0,0,1,.395-.163L83.21,62.9a.325.325,0,0,1,.163.372A.3.3,0,0,1,83.094,63.55Z" transform="translate(67.19 64.755)" fill="#bbbbf9"/>
        <path id="Path_15423" data-name="Path 15423" d="M49.642,49.981h-.116l-1.742-.813a.3.3,0,0,1-.139-.395.279.279,0,0,1,.372-.139l1.765.836a.266.266,0,0,1-.139.511Z" transform="translate(66.113 64.298)" fill="#bbbbf9"/>
        <path id="Path_15424" data-name="Path 15424" d="M48.921,50.3a.3.3,0,0,1-.279-.209L48.2,48.535a.279.279,0,0,1,.186-.372.325.325,0,0,1,.372.209l.441,1.556a.279.279,0,0,1-.186.372Z" transform="translate(66.858 63.7)" fill="#bbbbf9"/>
        <path id="Path_15425" data-name="Path 15425" d="M65.685,29.195a3.228,3.228,0,0,1-3.576,2.67,2.879,2.879,0,0,1-.929-.441,13.77,13.77,0,0,0,.3-5.805,2.694,2.694,0,0,1,2.16-.488,3.181,3.181,0,0,1,2.043,4.064Z" transform="translate(84.042 33.186)" fill="#122275"/>
        <path id="Path_15426" data-name="Path 15426" d="M71.808,36.851a14.768,14.768,0,0,1-7.152,3.855,4.644,4.644,0,0,1-1.254,0,6.966,6.966,0,0,1-1.254-.279c-1.718-.65-3.2-3.739-3.321-3.994a8.685,8.685,0,0,1-1.207-4.157c0-1.207.395-1.7.511-3.669V26.077a4.643,4.643,0,0,1,0-.581,3.276,3.276,0,0,1,0-.464c0-.139,0-.279,0-.441a7.756,7.756,0,0,1,1.927-5.248,8.777,8.777,0,0,1,4.3-2.02,8.917,8.917,0,0,1,1.6-.163h.58a10.891,10.891,0,0,1,7.9,3.53C78.286,25.4,75.291,33.252,71.808,36.851Z" transform="translate(79.336 22.72)" fill="#ff8c64"/>
        <path id="Path_15427" data-name="Path 15427" d="M68.276,24.43a2.4,2.4,0,0,1-2.136,2.6c-1.091-.046-1.927-1.324-1.858-2.81s1.045-2.647,2.136-2.6S68.276,22.944,68.276,24.43Z" transform="translate(88.139 28.615)" fill="#ff8c64"/>
        <path id="Path_15428" data-name="Path 15428" d="M65.791,24.987a1.9,1.9,0,0,1-1.115-.395.279.279,0,0,1,0-.395.3.3,0,0,1,.418,0,1.208,1.208,0,0,0,.72.279,1.7,1.7,0,0,0,1.44-.952.291.291,0,0,1,.511.279A2.322,2.322,0,0,1,65.791,24.987Z" transform="translate(88.557 30.938)" fill="#ea522f"/>
        <path id="Path_15429" data-name="Path 15429" d="M66.063,24.31a.28.28,0,0,1-.279-.395,3.624,3.624,0,0,0,.232-.859.281.281,0,1,1,.557.07,2.879,2.879,0,0,1-.255,1,.279.279,0,0,1-.255.186Z" transform="translate(90.096 30.176)" fill="#ea522f"/>
        <path id="Path_15430" data-name="Path 15430" d="M67.609,24.641a.325.325,0,0,1-.3-.279,2.173,2.173,0,0,0-1.579-2.322,1.115,1.115,0,0,0-.534.116.279.279,0,0,1-.395-.163.3.3,0,0,1,.163-.372,1.951,1.951,0,0,1,.813-.163,2.624,2.624,0,0,1,2.113,2.81.279.279,0,0,1-.279.3Z" transform="translate(88.806 28.405)" fill="#ea522f"/>
        <path id="Path_15431" data-name="Path 15431" d="M65.09,25.141h-.116a.279.279,0,0,1-.139-.372l1.115-2.438a.325.325,0,0,1,.395-.139.3.3,0,0,1,.139.395l-1.138,2.322a.255.255,0,0,1-.255.232Z" transform="translate(88.84 29.345)" fill="#ea522f"/>
        <path id="Path_15432" data-name="Path 15432" d="M65.625,23.673a.3.3,0,0,1-.255-.139l-.441-.813a.3.3,0,1,1,.511-.279l.441.813a.3.3,0,0,1-.116.395Z" transform="translate(88.886 29.396)" fill="#ea522f"/>
        <path id="Path_15433" data-name="Path 15433" d="M61.53,22.693a1.115,1.115,0,0,0,1.138,1,1.045,1.045,0,0,0,1.138-.952,1.068,1.068,0,0,0-1.138-.975,1.022,1.022,0,0,0-1.138.929Z" transform="translate(84.505 28.797)" fill="#122275"/>
        <path id="Path_15434" data-name="Path 15434" d="M61.881,23.154a.3.3,0,0,1-.209,0l-.627-.766a.287.287,0,0,1,.418-.395l.395.418a1,1,0,0,1,.209-.232c.789-.743,2.322-.6,4.017.372a.3.3,0,0,1-.279.511c-1.416-.836-2.763-1.022-3.344-.464a1.091,1.091,0,0,0-.279.418.255.255,0,0,1-.209.163Z" transform="translate(83.76 28.73)" fill="#122275"/>
        <path id="Path_15435" data-name="Path 15435" d="M57.9,22.206a1.091,1.091,0,0,0,.836,1.254,1.022,1.022,0,0,0,1.347-.6,1.091,1.091,0,0,0-.836-1.254,1.022,1.022,0,0,0-1.347.6Z" transform="translate(79.683 28.494)" fill="#122275"/>
        <path id="Path_15436" data-name="Path 15436" d="M62.064,23.755a.325.325,0,0,1-.209,0c-1.138-1.184-2.322-1.718-3.088-1.347a.836.836,0,0,0-.372.325s-.163.139-.255,0a.255.255,0,0,1-.232-.139l-.441-.859a.243.243,0,1,1,.395-.255l.255.488a.952.952,0,0,1,.255-.163c.975-.511,2.461,0,3.785,1.44a.3.3,0,0,1,0,.418A.371.371,0,0,1,62.064,23.755Z" transform="translate(79.025 28.199)" fill="#122275"/>
        <path id="Path_15437" data-name="Path 15437" d="M66.816,22.5a12.284,12.284,0,0,0-2.949-.743,11.61,11.61,0,0,0-2.647,0,2.067,2.067,0,0,1,.139-.464,2.322,2.322,0,0,1,.627-.859,20.157,20.157,0,0,1,2.043.395,4.923,4.923,0,0,1,1.765.6A3.2,3.2,0,0,1,66.816,22.5Z" transform="translate(84.095 27.043)" fill="#122275"/>
        <path id="Path_15438" data-name="Path 15438" d="M61.656,20.353a3.158,3.158,0,0,0-.325.534,1.393,1.393,0,0,0-.209.836s.255-.464.325-.6a2.972,2.972,0,0,1,.348-.65l.116-.139Z" transform="translate(83.961 26.911)" fill="#122275"/>
        <path id="Path_15439" data-name="Path 15439" d="M60.5,21.61a11.239,11.239,0,0,0-2.624.209,4.643,4.643,0,0,1,0-.581,3.274,3.274,0,0,1,0-.464,16.068,16.068,0,0,1,1.788-.464,2.67,2.67,0,0,1,.673.836,1.114,1.114,0,0,1,.163.464Z" transform="translate(79.661 26.884)" fill="#122275"/>
        <path id="Path_15440" data-name="Path 15440" d="M58.846,20.26a1.927,1.927,0,0,1,.372.511,1.649,1.649,0,0,1,.255.836s-.3-.464-.372-.6a2.833,2.833,0,0,0-.372-.6V20.26Z" transform="translate(80.803 26.818)" fill="#122275"/>
        <path id="Path_15441" data-name="Path 15441" d="M60.912,23.846a1.742,1.742,0,0,0-.859-.255,2.043,2.043,0,0,0-.882.163,1.742,1.742,0,0,0,.859.255,1.974,1.974,0,0,0,.882-.163Z" transform="translate(81.385 31.22)" fill="#122275"/>
        <path id="Path_15442" data-name="Path 15442" d="M61.892,25.9H61.52a7.338,7.338,0,0,1-2.786-.673.279.279,0,0,1-.139-.372.3.3,0,0,1,.395-.163,6.572,6.572,0,0,0,2.554.627,7.268,7.268,0,0,0,3.506-.72.286.286,0,1,1,.255.511,7.825,7.825,0,0,1-3.413.79Z" transform="translate(80.59 32.511)" fill="#ea522f"/>
        <path id="Path_15443" data-name="Path 15443" d="M58.821,25.426c0,.511,1.765.65,1.951.673s2.322.186,2.786-.627a.766.766,0,0,0,0-.348c0-.232-.511-.116-1.138-.255s-.859-.488-1.254-.441a1.928,1.928,0,0,1-.534,0h-.186c-.372,0-.372-.139-.534-.116s-.673.6-.673.6S58.8,25.217,58.821,25.426Z" transform="translate(80.922 32.171)" fill="#ea522f"/>
        <path id="Path_15444" data-name="Path 15444" d="M60.432,26.179h-.348a3.483,3.483,0,0,1-.673-.139.3.3,0,0,1,.163-.557l.557.116a3.506,3.506,0,0,0,1.3-.163.3.3,0,0,1,.372.209.279.279,0,0,1-.186.348,3.506,3.506,0,0,1-1.184.186Z" transform="translate(81.516 33.647)" fill="#ea522f"/>
        <path id="Path_15445" data-name="Path 15445" d="M62.931,25.113c0,.255-1.207.929-2.485.836-.673,0-1.486-.325-1.486-.6s.906-.534,1.486-.6a4.83,4.83,0,0,1,1.672.139C62.652,24.974,62.908,25.02,62.931,25.113Z" transform="translate(81.107 32.716)" fill="#fff"/>
        <path id="Path_15446" data-name="Path 15446" d="M69,16.946a10.519,10.519,0,0,1,6.246,4.644c1.277,2.322,1.742,5.573.673,6.316-.232.163-.372.116-.813.372-1.207.673-1.347,1.7-1.7,1.672s.163-3.971-1.672-5.852-3.855-.418-8.824-1.416a23.429,23.429,0,0,1-4.783-1.509A10.24,10.24,0,0,1,69,16.853Z" transform="translate(80.01 21.958)" fill="#3f469a"/>
        <path id="Path_15447" data-name="Path 15447" d="M88.879,37.761h-30.4L55,32.025a15.767,15.767,0,0,1,3.483-1.3,14.606,14.606,0,0,1,3.971-.395,38.244,38.244,0,0,0,12.261.952,37.409,37.409,0,0,0,9.056-1.951,13,13,0,0,1,7.245,1.324A12.236,12.236,0,0,1,92.641,31.7C91.317,33.721,90.087,35.741,88.879,37.761Z" transform="translate(75.872 38.715)" fill="#3f469a"/>
        <path id="Path_15448" data-name="Path 15448" d="M84.9,48.375a80.112,80.112,0,0,1,3.181,8.29l-5.294,4.969c-1.463-2.577-2.9-5.178-4.366-7.779L76.89,51.161,69.761,38.482c-2.02-2.74-2.183-5.828-1-6.966s5.2-.882,7.988,2.531c1.393,1.951,2.786,4.11,4.157,6.479A78.952,78.952,0,0,1,84.9,48.375Z" transform="translate(93.086 40.896)" fill="#ff8c64"/>
        <path id="Path_15449" data-name="Path 15449" d="M79.851,38.43l-6.479,5.434L71.84,41.17Z" transform="translate(98.136 50.84)" fill="#122275"/>
        <path id="Path_15450" data-name="Path 15450" d="M87.1,48.7,75.787,54.735c-2.508-5.341-4.946-10.8-7.547-16.069a5.991,5.991,0,0,1,10.1-6.339Z" transform="translate(92.54 39.691)" fill="#3f469a"/>
        <path id="Path_15451" data-name="Path 15451" d="M53.216,47.65c-1.416,2.833-2.6,5.527-3.576,8.081,1.7,1.718,3.367,3.483,5.039,5.225,1.6-2.508,3.158-5.039,4.644-7.547l1.649-2.624,7.872-12.423C71,35.715,71.3,32.65,70.19,31.4s-5.155-1-8.1,2.322a75.511,75.511,0,0,0-4.458,6.27,78.506,78.506,0,0,0-4.412,7.663Z" transform="translate(68.786 40.621)" fill="#ff8c64"/>
        <path id="Path_15452" data-name="Path 15452" d="M51.18,38,57.4,43.759l1.649-2.624Z" transform="translate(70.822 50.272)" fill="#122275"/>
        <path id="Path_15453" data-name="Path 15453" d="M50.49,47.868l10.983,6.618,8.359-15.7a5.991,5.991,0,0,0-9.8-6.827Z" transform="translate(69.909 39.405)" fill="#3f469a"/>
        <path id="Path_15454" data-name="Path 15454" d="M76.84,65.295l-1.672,2.183A65.018,65.018,0,0,1,54.385,54.985a62.537,62.537,0,0,1-4.644-4.644,6.966,6.966,0,0,1,1.207-8.87l3.646,3.553a40.475,40.475,0,0,1,4.133,2.833c6.8,5.434,7.988,10.287,14.745,15.3a36.969,36.969,0,0,0,3.367,2.136Z" transform="translate(67.5 54.859)" fill="#ff8c64"/>
        <path id="Path_15455" data-name="Path 15455" d="M65.1,65.175,66.772,67.5A64.809,64.809,0,0,0,87.671,55a63.019,63.019,0,0,0,4.644-4.644,7.384,7.384,0,0,0,1.045-4.226,7.175,7.175,0,0,0-2.322-4.644l-3.669,3.483a37.15,37.15,0,0,0-4.2,2.9C76.339,53.309,75.178,58.163,68.4,63.155a26.613,26.613,0,0,1-3.3,2.02Z" transform="translate(89.225 54.886)" fill="#ff8c64"/>
        <path id="Path_15456" data-name="Path 15456" d="M59.541,52.075a11.61,11.61,0,0,0,10.171-1.184.58.58,0,0,1,.325.348.557.557,0,0,1,0,.418,4.644,4.644,0,0,0,1.115-1.207c.348-.534.789-.813.952-.72s.209.627,0,1.207a.7.7,0,0,1,.186.186,1.347,1.347,0,0,1,0,1.207,5.683,5.683,0,0,1,0,.627,4.644,4.644,0,0,1-1,2.717l1.509-.65h.534a9.357,9.357,0,0,1-4.76,2.578,11.61,11.61,0,0,1-4.319-.255,29.721,29.721,0,0,1-5.155-1.6C59.239,54.49,59.4,53.283,59.541,52.075Z" transform="translate(81.293 65.757)" fill="#ff8c64"/>
        <path id="Path_15457" data-name="Path 15457" d="M62.618,53.008a.3.3,0,0,1-.279-.186.325.325,0,0,1,.163-.395,6.966,6.966,0,0,0,1.393-.673,8.685,8.685,0,0,0,1.533-1.231.255.255,0,0,1,.395,0,.3.3,0,0,1,0,.418,9.754,9.754,0,0,1-1.625,1.3,8.151,8.151,0,0,1-1.486.766Z" transform="translate(85.553 66.705)" fill="#ea522f"/>
        <path id="Path_15458" data-name="Path 15458" d="M63.874,54.261h-.163a.3.3,0,0,1,0-.395l2.183-3.6a.279.279,0,0,1,.395,0,.3.3,0,0,1,.116.395l-2.322,3.6A.255.255,0,0,1,63.874,54.261Z" transform="translate(87.293 66.381)" fill="#ea522f"/>
        <path id="Path_15459" data-name="Path 15459" d="M63.415,52.553a.325.325,0,0,1-.3-.232.3.3,0,0,1,.232-.348l1.161-.279a.3.3,0,0,1,.348.209.279.279,0,0,1-.209.348l-1.161.279Z" transform="translate(86.591 68.368)" fill="#ea522f"/>
        <path id="Path_15460" data-name="Path 15460" d="M64.036,54.376h-.163a.325.325,0,0,1,0-.418l2-3.112a.279.279,0,0,1,.395,0,.3.3,0,0,1,0,.395l-2,3A.325.325,0,0,1,64.036,54.376Z" transform="translate(87.503 67.148)" fill="#ea522f"/>
        <path id="Path_15461" data-name="Path 15461" d="M63.526,53a.3.3,0,0,1-.093-.581l1.277-.348a.29.29,0,0,1,.163.557l-1.277.348Z" transform="translate(86.759 68.867)" fill="#ea522f"/>
        <path id="Path_15462" data-name="Path 15462" d="M63.374,53.792a.3.3,0,0,1-.3-.255.279.279,0,0,1,.255-.325,4.644,4.644,0,0,0,1.37-.348,5.434,5.434,0,0,0,1.138-.627.279.279,0,1,1,.395.395,6.154,6.154,0,0,1-1.277.7,5.8,5.8,0,0,1-1.509.395Z" transform="translate(86.539 68.985)" fill="#ea522f"/>
        <path id="Path_15463" data-name="Path 15463" d="M74.44,50a11.843,11.843,0,0,1-9.776,3.112.581.581,0,0,0-.139.441.6.6,0,0,0,.232.372,4.644,4.644,0,0,1-1.509-.65c-.557-.348-1.068-.418-1.184-.255s0,.65.581,1.068a1.093,1.093,0,0,0,0,.232,1.44,1.44,0,0,0,.441,1.138,2.462,2.462,0,0,0,.209.581A4.644,4.644,0,0,0,65.337,58.1H63.619c-.348.116-.464.209-.464.279a6.966,6.966,0,0,0,5.41.395,12.191,12.191,0,0,0,3.855-2.16,27.167,27.167,0,0,0,4.017-3.6Z" transform="translate(85.156 66.137)" fill="#ff8c64"/>
        <path id="Path_15464" data-name="Path 15464" d="M66.562,52.687a11.382,11.382,0,0,1-1.254,0,8.778,8.778,0,0,1-2-.534.255.255,0,0,1-.163-.372.3.3,0,0,1,.372-.163,8.383,8.383,0,0,0,3.437.557.3.3,0,0,1,0,.581Z" transform="translate(86.602 68.256)" fill="#ea522f"/>
        <path id="Path_15465" data-name="Path 15465" d="M65.869,54.595h-.163l-3.46-2.322a.279.279,0,0,1,0-.395.3.3,0,0,1,.418,0l3.46,2.322a.325.325,0,0,1,0,.418.371.371,0,0,1-.255-.023Z" transform="translate(85.344 68.508)" fill="#ea522f"/>
        <path id="Path_15466" data-name="Path 15466" d="M63.921,53.453a.279.279,0,0,1-.279-.232.3.3,0,0,1,.232-.348l1.184-.209a.279.279,0,0,1,.325.209.3.3,0,0,1-.232.348l-1.161.232Z" transform="translate(87.292 69.65)" fill="#ea522f"/>
        <path id="Path_15467" data-name="Path 15467" d="M65.679,54.808a.232.232,0,0,1-.163,0L62.4,52.788a.3.3,0,0,1,.325-.488l3.112,2.02a.3.3,0,0,1,0,.418.279.279,0,0,1-.163.07Z" transform="translate(85.558 69.154)" fill="#ea522f"/>
        <path id="Path_15468" data-name="Path 15468" d="M63.931,53.812a.279.279,0,0,1-.279-.232.3.3,0,0,1,.232-.348l1.3-.186a.255.255,0,0,1,.325.232.279.279,0,0,1-.232.325l-1.3.209Z" transform="translate(87.305 70.15)" fill="#ea522f"/>
        <path id="Path_15469" data-name="Path 15469" d="M64.72,54.172a6.966,6.966,0,0,1-1.207,0,.3.3,0,0,1-.209-.348.279.279,0,0,1,.325-.232,6.153,6.153,0,0,0,1.3,0,5.481,5.481,0,0,0,1.393-.255.3.3,0,0,1,.372.209.279.279,0,0,1-.186.348,5.921,5.921,0,0,1-1.556.279Z" transform="translate(86.842 70.533)" fill="#ea522f"/>
        <path id="Path_15470" data-name="Path 15470" d="M60.971,40.817A16.093,16.093,0,0,1,58,40.538a.279.279,0,0,1,0-.557A16.742,16.742,0,0,0,70.027,37.52a.279.279,0,0,1,.325,0,13,13,0,0,0,12.261,1.509.325.325,0,0,1,.395.186.3.3,0,0,1-.186.372A13.631,13.631,0,0,1,70.166,38.1a16.858,16.858,0,0,1-6.014,2.322A17.393,17.393,0,0,1,60.971,40.817Z" transform="translate(79.468 49.568)" fill="#bbbbf9"/>
        <path id="Path_15471" data-name="Path 15471" d="M58.863,39.618H52.849l-2.136,2.949c-.232-.859-2.461-9.753,1.416-13.422.72-.7,2.322-2.322,4.18-1.834a3.112,3.112,0,0,1,1.672,1.045A6.5,6.5,0,0,1,61.3,32.327a7.384,7.384,0,0,1-1.045,5.225A9.52,9.52,0,0,1,58.863,39.618Z" transform="translate(69.083 36.022)" fill="#ff8c64"/>
        <path id="Path_15472" data-name="Path 15472" d="M66.539,30.74l4.3,4.226c-2.763,4.226-4.853,7.8-6.246,10.31-5.225,9.288-6.8,14.258-11.843,18.344a21.109,21.109,0,0,1-5.178,3.135L40.81,61.531a67.525,67.525,0,0,1,5.2-7.2c6.966-8.336,12.1-10.612,17.717-18.9A50.039,50.039,0,0,0,66.539,30.74Z" transform="translate(57.112 40.674)" fill="#ff8c64"/>
        <path id="Path_15473" data-name="Path 15473" d="M68.656,27.84,50.079,31.95a.557.557,0,0,1-.673-.418.581.581,0,0,1,.418-.743L68.4,26.679a.594.594,0,1,1,.255,1.161Z" transform="translate(68.439 35.284)" fill="#122275"/>
        <path id="Path_15474" data-name="Path 15474" d="M61.68,27.248c.163.673-1.045,1.533-2.694,1.9s-3.065,0-3.228-.6,1.045-1.533,2.694-1.9S61.54,26.551,61.68,27.248Z" transform="translate(76.855 35.04)" fill="#122275"/>
        <path id="Path_15475" data-name="Path 15475" d="M56.3,39.89l-4.5-3.855.766-6.618a5.132,5.132,0,0,1,1.509-1.533c1.184-.766,2.879-1.138,3.2-.65,0,.116.255.581-1.277,2.183C56.1,32.924,56.189,36.407,56.3,39.89Z" transform="translate(71.641 35.749)" fill="#ff8c64"/>
        <path id="Path_15476" data-name="Path 15476" d="M52.674,33.233h-.139a.3.3,0,0,1-.116-.395l2.554-4.644a.252.252,0,1,1,.395.279l-2.554,4.644a.279.279,0,0,1-.139.116Z" transform="translate(72.416 37.112)" fill="#ea522f"/>
        <path id="Path_15477" data-name="Path 15477" d="M54.05,34.841a.325.325,0,0,1-.279-.209l-1.44-4.2a.279.279,0,0,1,.186-.372.3.3,0,0,1,.372.186l1.44,4.2a.279.279,0,0,1-.186.372Z" transform="translate(72.318 39.754)" fill="#ea522f"/>
        <path id="Path_15478" data-name="Path 15478" d="M51.3,32.053h-.186a.325.325,0,0,1,0-.418L54.132,27.8a.288.288,0,1,1,.418.395l-3.019,3.855A.279.279,0,0,1,51.3,32.053Z" transform="translate(70.633 36.667)" fill="#ea522f"/>
        <path id="Path_15479" data-name="Path 15479" d="M53.459,32.19a.255.255,0,0,1-.163,0,.279.279,0,0,1,0-.395l2.043-2.949a.279.279,0,1,1,.395.395L53.691,32.19a.255.255,0,0,1-.232,0Z" transform="translate(73.512 38.062)" fill="#ea522f"/>
        <path id="Path_15480" data-name="Path 15480" d="M53.717,32.443a.279.279,0,0,1-.209-.116.3.3,0,0,1,0-.418l2.972-2.322a.279.279,0,0,1,.395,0,.255.255,0,0,1,0,.395L53.926,32.3a.255.255,0,0,1-.209.139Z" transform="translate(73.788 39.04)" fill="#ea522f"/>
        <path id="Path_15481" data-name="Path 15481" d="M54.268,31.038h0l-1.416-.627a.3.3,0,0,1-.163-.372.348.348,0,0,1,.395-.163l1.416.65a.255.255,0,0,1,.163.372.3.3,0,0,1-.395.139Z" transform="translate(72.796 39.516)" fill="#ea522f"/>
        <path id="Path_15482" data-name="Path 15482" d="M54.088,32.115a.3.3,0,0,1-.279-.186L53.3,30.56a.3.3,0,0,1,.163-.372.255.255,0,0,1,.372.163l.511,1.37a.255.255,0,0,1-.163.372Z" transform="translate(73.602 39.902)" fill="#ea522f"/>
        <path id="Path_15483" data-name="Path 15483" d="M46.414,62.344A18.414,18.414,0,0,1,28,44H64.8A18.391,18.391,0,0,1,46.414,62.344Z" transform="translate(40.176 58.204)" fill="#fff"/>
        <path id="Path_15484" data-name="Path 15484" d="M52.27,55.927l-2.624,3.924c-2.322-.163-5.619-.418-9.776-.65-14.652-.813-18.577-.209-20.9-2.949-1.115-1.277-3.112-4.644-.325-13.282L27.47,44.6v2.067c.906.372,2.508,1.045,4.644,1.788,6.571,2.438,9.59,2.833,15.3,5.155C48.276,54.07,50.064,54.836,52.27,55.927Z" transform="translate(25.938 56.843)" fill="#ff8c64"/>
        <path id="Path_15485" data-name="Path 15485" d="M43,49.394c-1,.209-1.416.279-1.416.348a14.1,14.1,0,0,0,3.715,0h3.785c.255,0,3.181-.464,3.506.395a.79.79,0,0,1,0,.395,4.366,4.366,0,0,1-2.322.581,32.509,32.509,0,0,0-3.437.139,19.248,19.248,0,0,0-2.9.7.72.72,0,0,0,0,.464c.464.743,2.322.511,5.318.882,1.277.139,4.017.488,4.11,1.161,0,.232-.279.441-.395.534-1.138.906-2.833.3-4.644,0a26.658,26.658,0,0,0-5.039-.72,20.388,20.388,0,0,1,4.644.163,20.689,20.689,0,0,1,3.553.906,1.742,1.742,0,0,1-.209,2.02,1.718,1.718,0,0,1-2.322,0l-6.711-1.6a3.017,3.017,0,0,1,.534-.232,1.881,1.881,0,0,1,1.509.372,7.454,7.454,0,0,1,3.042.673c.65.3,1.3.6,1.347,1.161a1.37,1.37,0,0,1-.6,1.045,12.052,12.052,0,0,1-2.647,0,19.97,19.97,0,0,1-5.155-1.254l-.673-.232h-.3l-.65-.163h-.882a5.71,5.71,0,0,1-.929-.163,21.9,21.9,0,0,1-6.966-2.856c-1.324-.929-1.533-1.393-1.6-1.788a2.717,2.717,0,0,1,1.115-2.183,13.3,13.3,0,0,1,2.717.464,6.967,6.967,0,0,1,1.44-1.207c2.322-1.37,3.553-.232,6.525-1a26.286,26.286,0,0,1,5.968-1.625c.163,0,.627,0,.743.325s-.325.813-.441.952A8.184,8.184,0,0,1,43,49.394Z" transform="translate(40.506 61.866)" fill="#ff8c64"/>
      </g>
    </g>
  </g>
</svg>
